<?xml version="1.0" encoding="UTF-8"?>
<svg width="128" height="128" viewBox="0 0 128 128" fill="none" xmlns="http://www.w3.org/2000/svg">
  <rect width="128" height="128" rx="24" fill="#3B82F6"/>
  <path d="M40 64C40 50.7452 50.7452 40 64 40C77.2548 40 88 50.7452 88 64C88 77.2548 77.2548 88 64 88C50.7452 88 40 77.2548 40 64Z" fill="white"/>
  <path d="M64 48C55.1634 48 48 55.1634 48 64C48 72.8366 55.1634 80 64 80C72.8366 80 80 72.8366 80 64C80 55.1634 72.8366 48 64 48ZM64 72C59.5817 72 56 68.4183 56 64C56 59.5817 59.5817 56 64 56C68.4183 56 72 59.5817 72 64C72 68.4183 68.4183 72 64 72Z" fill="#1D4ED8"/>
</svg>